<svg width="13" height="13" viewBox="0 0 13 13" fill="none" xmlns="http://www.w3.org/2000/svg">
<path d="M12.0586 6.61328L11.5391 6.06641C11.4023 5.92969 11.1836 5.92969 11.0742 6.06641L6.83594 10.3047V0.953125C6.83594 0.789062 6.67188 0.625 6.50781 0.625H5.74219C5.55078 0.625 5.41406 0.789062 5.41406 0.953125V10.3047L1.14844 6.06641C1.03906 5.92969 0.820312 5.92969 0.683594 6.06641L0.164062 6.61328C0.0273438 6.72266 0.0273438 6.94141 0.164062 7.07812L5.87891 12.793C6.01562 12.9297 6.20703 12.9297 6.34375 12.793L12.0586 7.07812C12.1953 6.94141 12.1953 6.72266 12.0586 6.61328Z" fill="white"/>
</svg>
