<svg width="52" height="53" viewBox="0 0 52 53" fill="none" xmlns="http://www.w3.org/2000/svg">
<path d="M37.375 37.875C39.1016 37.875 40.625 36.4531 40.625 34.625C40.625 32.8984 39.1016 31.375 37.375 31.375C35.5469 31.375 34.125 32.8984 34.125 34.625C34.125 36.4531 35.5469 37.875 37.375 37.875ZM14.625 37.875C16.3516 37.875 17.875 36.4531 17.875 34.625C17.875 32.8984 16.3516 31.375 14.625 31.375C12.7969 31.375 11.375 32.8984 11.375 34.625C11.375 36.4531 12.7969 37.875 14.625 37.875ZM49.5625 13.5H48.75V8.625C48.75 4.15625 38.5938 0.5 26 0.5C13.3047 0.5 3.25 4.15625 3.25 8.625V13.5H2.4375C1.01562 13.5 0 14.6172 0 15.9375V24.0625C0 25.4844 1.01562 26.5 2.4375 26.5H3.25V42.75C3.25 44.5781 4.67188 46 6.5 46V49.25C6.5 51.0781 7.92188 52.5 9.75 52.5H11.375C13.1016 52.5 14.625 51.0781 14.625 49.25V46H37.375V49.25C37.375 51.0781 38.7969 52.5 40.625 52.5H42.25C43.9766 52.5 45.5 51.0781 45.5 49.25V46C47.2266 46 48.75 44.5781 48.75 42.75V26.5H49.5625C50.8828 26.5 52 25.4844 52 24.0625V15.9375C52 14.6172 50.8828 13.5 49.5625 13.5ZM43.875 41.125H8.125V28.125H43.875V41.125ZM43.875 23.25H8.125V16.75H43.875V23.25ZM43.875 11.875H8.125V9.23438C9.54688 7.8125 15.8438 5.375 26 5.375C36.0547 5.375 42.3516 7.8125 43.875 9.23438V11.875Z" fill="#D2D3D2"/>
</svg>
