<svg width="14" height="15" viewBox="0 0 14 15" fill="none" xmlns="http://www.w3.org/2000/svg">
<path d="M7 0.96875C3.25391 0.96875 0.21875 4.00391 0.21875 7.75C0.21875 11.4961 3.25391 14.5312 7 14.5312C10.7461 14.5312 13.7812 11.4961 13.7812 7.75C13.7812 4.00391 10.7461 0.96875 7 0.96875ZM8.55859 10.5664L6.125 8.78906C6.04297 8.73438 6.01562 8.65234 6.01562 8.54297V3.92188C6.01562 3.75781 6.15234 3.59375 6.34375 3.59375H7.65625C7.82031 3.59375 7.98438 3.75781 7.98438 3.92188V7.69531L9.70703 8.95312C9.84375 9.0625 9.89844 9.28125 9.78906 9.41797L8.99609 10.4844C8.91406 10.6211 8.69531 10.6484 8.55859 10.5664Z" fill="#212429"/>
</svg>
