<svg width="112" height="112" viewBox="0 0 112 112" fill="none" xmlns="http://www.w3.org/2000/svg">
<path d="M8.50258 28.5774L56 1.1547L103.497 28.5774V83.4226L56 110.845L8.50258 83.4226V28.5774Z" stroke="white" stroke-width="2"/>
<path d="M45.7475 67.4348L45.7474 67.4349L39.0041 82.0049L45.7475 67.4348ZM45.7475 67.4348C45.9949 66.8984 46.6302 66.6641 47.1666 66.9115C47.7029 67.1588 47.9372 67.7941 47.6899 68.3305L45.7475 67.4348ZM40.9465 82.9008L40.9466 82.9007L47.6899 68.3306L40.9465 82.9008ZM40.9465 82.9008C40.6991 83.4371 40.0638 83.6714 39.5274 83.424C38.9911 83.1767 38.7568 82.5414 39.0041 82.0051L40.9465 82.9008Z" fill="white" stroke="#3E4095" stroke-width="0.2"/>
<path d="M64.5489 67.4348L64.5488 67.4346C64.3014 66.8983 63.6661 66.664 63.1297 66.9114C62.5934 67.1587 62.3591 67.7941 62.6064 68.3304C62.6064 68.3304 62.6064 68.3304 62.6064 68.3305L69.3497 82.9005L69.3498 82.9007C69.5971 83.437 70.2325 83.6713 70.7689 83.4239C71.3052 83.1766 71.5395 82.5413 71.2922 82.0049L64.5489 67.4348ZM64.5489 67.4348L71.2922 82.0048L64.5489 67.4348Z" fill="white" stroke="#3E4095" stroke-width="0.2"/>
<path d="M42.2747 71.2548C42.2747 70.6628 42.7546 70.1829 43.3466 70.1829H68.0721C68.6641 70.1829 69.144 70.6628 69.144 71.2548C69.144 71.8468 68.6641 72.3267 68.0721 72.3267H43.3466C42.7546 72.3267 42.2747 71.8468 42.2747 71.2548Z" fill="white" stroke="#3E4095" stroke-width="0.2"/>
<path d="M40.027 74.6251C40.027 74.0331 40.5069 73.5532 41.0989 73.5532H70.32C70.912 73.5532 71.3919 74.0331 71.3919 74.6251C71.3919 75.2171 70.912 75.697 70.32 75.697H41.0989C40.5069 75.697 40.027 75.2171 40.027 74.6251Z" fill="white" stroke="#3E4095" stroke-width="0.2"/>
<path d="M37.7794 79.1222C37.7794 78.5302 38.2594 78.0503 38.8513 78.0503H72.568C73.16 78.0503 73.6399 78.5302 73.6399 79.1222C73.6399 79.7141 73.16 80.1941 72.568 80.1941H38.8513C38.2594 80.1941 37.7794 79.7141 37.7794 79.1222Z" fill="white" stroke="#3E4095" stroke-width="0.2"/>
<path d="M66.592 34.5224C66.395 34.3255 66.1397 34.1866 65.8553 34.1357L65.8797 34.1143H65.6136H45.8051C45.4245 34.1143 45.078 34.271 44.8266 34.5224C44.5752 34.7738 44.4185 35.1203 44.4185 35.5009V65.1433C44.4185 65.5238 44.5752 65.8703 44.8266 66.1217C45.0781 66.3731 45.4246 66.5299 45.8051 66.5299H65.6136C65.9941 66.5299 66.3405 66.3731 66.5919 66.1216C66.8434 65.8702 67.0002 65.5238 67.0002 65.1433V35.5009C67.0002 35.1204 66.8434 34.7739 66.592 34.5224ZM45.8051 31.9705H65.6136C66.5853 31.9705 67.4681 32.3672 68.1077 33.0067C68.7473 33.6463 69.144 34.5292 69.144 35.5009V65.1433C69.144 66.1149 68.7472 66.9978 68.1076 67.6373C67.4681 68.2769 66.5853 68.6737 65.6136 68.6737H45.8051C44.8334 68.6737 43.9505 68.277 43.3109 67.6374C42.6714 66.9978 42.2747 66.115 42.2747 65.1433V35.5009C42.2747 34.5291 42.6714 33.6462 43.3109 33.0067C43.9504 32.3672 44.8333 31.9705 45.8051 31.9705Z" fill="white" stroke="#3E4095" stroke-width="0.2"/>
<path d="M44.5222 29.6706V29.5706H44.5222V28.5467C44.5222 27.9548 45.0022 27.4748 45.5941 27.4748H65.8242C66.4162 27.4748 66.8961 27.9548 66.8961 28.5467V29.6706C66.8961 30.2626 66.4162 30.7425 65.8242 30.7425C65.2825 30.7425 64.8346 30.3405 64.7625 29.8186H65.7242H65.8242H65.9242V29.8147C66.0141 29.8077 66.1015 29.7913 66.1853 29.7665L66.157 29.5706H65.9242H65.8242H65.7242H64.6523H64.5523V29.6186H46.8691H46.8661V29.5706H46.7661H45.5941H45.4941V29.6706V29.7186V29.8186H45.5941H46.6559C46.5838 30.3405 46.1359 30.7425 45.5941 30.7425C45.0022 30.7425 44.5222 30.2626 44.5222 29.6706ZM46.8575 29.8186H64.5571H46.8575Z" fill="white" stroke="#3E4095" stroke-width="0.2"/>
<path d="M56.7815 28.6468V32.9423H54.6377V28.6468H56.7815Z" fill="white" stroke="#3E4095" stroke-width="0.2"/>
<path d="M58.4664 33.5075L58.4664 33.5075C59.1724 34.2134 59.6088 35.1883 59.6088 36.2651C59.6088 37.342 59.1724 38.3169 58.4664 39.0228C57.7606 39.7287 56.7856 40.1652 55.7088 40.1652C54.6319 40.1652 53.657 39.7287 52.9511 39.0228C52.2452 38.3169 51.8087 37.342 51.8087 36.2651C51.8087 35.1883 52.2452 34.2134 52.9511 33.5075L52.9511 33.5075C53.657 32.8016 54.6319 32.3651 55.7088 32.3651C56.7856 32.3651 57.7606 32.8016 58.4664 33.5075ZM56.9507 35.0232C56.6331 34.7056 56.1937 34.5089 55.7088 34.5089C55.2238 34.5089 54.7845 34.7056 54.4668 35.0232C54.1492 35.3408 53.9525 35.7802 53.9525 36.2651C53.9525 36.7502 54.1492 37.1895 54.4668 37.5071C54.7844 37.8247 55.2237 38.0214 55.7088 38.0214C56.1938 38.0214 56.6331 37.8247 56.9507 37.5071C57.2684 37.1895 57.465 36.7502 57.465 36.2651C57.465 35.7802 57.2683 35.3408 56.9507 35.0232Z" fill="white" stroke="#3E4095" stroke-width="0.2"/>
<path d="M43.845 54.2896L46.927 55.5645L46.9453 55.5721H46.9652H64.4269H64.4466L64.4648 55.5647L67.5734 54.2893L68.3855 56.265L65.0626 57.6283L64.6375 57.7159H46.7527L46.328 57.6283L43.0329 56.2653L43.845 54.2896Z" fill="white" stroke="#3E4095" stroke-width="0.2"/>
<path d="M50.1428 61.1879V61.0879H50.0428H47.8911H47.7911V61.1879V62.2157V62.3157H47.8911H50.0428H50.1428V62.2157V61.1879ZM46.7191 58.9441H51.2147C51.8066 58.9441 52.2866 59.424 52.2866 60.016V63.3877C52.2866 63.9796 51.8066 64.4596 51.2147 64.4596H46.7191C46.1272 64.4596 45.6472 63.9796 45.6472 63.3877V60.016C45.6472 59.424 46.1272 58.9441 46.7191 58.9441Z" fill="white" stroke="#3E4095" stroke-width="0.2"/>
<path d="M63.6285 61.1879V61.0879H63.5285H61.3768H61.2768V61.1879V62.2157V62.3157H61.3768H63.5285H63.6285V62.2157V61.1879ZM60.2049 58.9441H64.7004C65.2924 58.9441 65.7723 59.424 65.7723 60.016V63.3877C65.7723 63.9796 65.2924 64.4596 64.7004 64.4596H60.2049C59.6129 64.4596 59.133 63.9796 59.133 63.3877V60.016C59.133 59.424 59.6129 58.9441 60.2049 58.9441Z" fill="white" stroke="#3E4095" stroke-width="0.2"/>
<path d="M43.4466 38.4494H67.9722V40.5932H43.4466V38.4494Z" fill="white" stroke="#3E4095" stroke-width="0.2"/>
</svg>
