<svg width="50" height="49" viewBox="0 0 50 49" fill="none" xmlns="http://www.w3.org/2000/svg">
                  <path d="M25 0.03125C11.6211 0.03125 0.78125 10.9688 0.78125 24.25C0.78125 37.6289 11.6211 48.4688 25 48.4688C38.2812 48.4688 49.2188 37.6289 49.2188 24.25C49.2188 10.9688 38.2812 0.03125 25 0.03125ZM25 4.71875C34.9609 4.71875 43.1641 12.3359 44.3359 21.9062H36.0352C34.7656 18.7812 31.7383 16.4375 28.125 16.4375H21.875C18.1641 16.4375 15.1367 18.7812 13.8672 21.9062H5.56641C6.73828 12.3359 14.9414 4.71875 25 4.71875ZM25 31.1836L18.0664 24.25C18.457 22.4922 20.0195 21.2227 21.875 21.2227H28.125C29.9805 21.2227 31.4453 22.4922 31.9336 24.25L25 31.1836ZM5.56641 26.5938H13.8672L22.6562 35.3828V43.6836C13.6719 42.6094 6.64062 35.5781 5.56641 26.5938ZM27.3438 43.6836V35.3828L36.0352 26.5938H44.3359C43.2617 35.5781 36.2305 42.6094 27.3438 43.6836Z" fill="white"></path>
                </svg>