<svg width="83" height="63" viewBox="0 0 83 63" fill="none" xmlns="http://www.w3.org/2000/svg">
                  <path d="M73.4374 25.6875C74.5663 25.6875 75.5624 24.7578 75.5624 23.5625C75.5624 22.4336 74.5663 21.4375 73.4374 21.4375C72.2421 21.4375 71.3124 22.4336 71.3124 23.5625C71.3124 24.7578 72.2421 25.6875 73.4374 25.6875ZM58.5624 25.6875C59.6913 25.6875 60.6874 24.7578 60.6874 23.5625C60.6874 22.4336 59.6913 21.4375 58.5624 21.4375C57.3671 21.4375 56.4374 22.4336 56.4374 23.5625C56.4374 24.7578 57.3671 25.6875 58.5624 25.6875ZM81.4062 9.75H80.8749V6.5625C80.8749 3.64062 74.2343 1.25 65.9999 1.25C57.6992 1.25 51.1249 3.64062 51.1249 6.5625V9.75H50.5937C49.664 9.75 48.9999 10.4805 48.9999 11.3438V16.6562C48.9999 17.5859 49.664 18.25 50.5937 18.25H51.1249V28.875C51.1249 30.0703 52.0546 31 53.2499 31V33.125C53.2499 34.3203 54.1796 35.25 55.3749 35.25H56.4374C57.5663 35.25 58.5624 34.3203 58.5624 33.125V31H73.4374V33.125C73.4374 34.3203 74.3671 35.25 75.5624 35.25H76.6249C77.7538 35.25 78.7499 34.3203 78.7499 33.125V31C79.8788 31 80.8749 30.0703 80.8749 28.875V18.25H81.4062C82.2695 18.25 82.9999 17.5859 82.9999 16.6562V11.3438C82.9999 10.4805 82.2695 9.75 81.4062 9.75ZM77.6874 27.8125H54.3124V19.3125H77.6874V27.8125ZM77.6874 16.125H54.3124V11.875H77.6874V16.125ZM77.6874 8.6875H54.3124V6.96094C55.2421 6.03125 59.3593 4.4375 65.9999 4.4375C72.5742 4.4375 76.6913 6.03125 77.6874 6.96094V8.6875Z" fill="white"></path>
                  <path d="M31.1914 41.9375C28.3594 41.9375 27.0898 43.5 22.5 43.5C17.8125 43.5 16.543 41.9375 13.7109 41.9375C6.48438 41.9375 0.625 47.8945 0.625 55.1211V57.5625C0.625 60.1992 2.67578 62.25 5.3125 62.25H39.6875C42.2266 62.25 44.375 60.1992 44.375 57.5625V55.1211C44.375 47.8945 38.418 41.9375 31.1914 41.9375ZM39.6875 57.5625H5.3125V55.1211C5.3125 50.4336 9.02344 46.625 13.7109 46.625C15.1758 46.625 17.4219 48.1875 22.5 48.1875C27.4805 48.1875 29.7266 46.625 31.1914 46.625C35.8789 46.625 39.6875 50.4336 39.6875 55.1211V57.5625ZM22.5 40.375C30.2148 40.375 36.5625 34.125 36.5625 26.3125C36.5625 18.5977 30.2148 12.25 22.5 12.25C14.6875 12.25 8.4375 18.5977 8.4375 26.3125C8.4375 34.125 14.6875 40.375 22.5 40.375ZM22.5 16.9375C27.5781 16.9375 31.875 21.2344 31.875 26.3125C31.875 31.4883 27.5781 35.6875 22.5 35.6875C17.3242 35.6875 13.125 31.4883 13.125 26.3125C13.125 21.2344 17.3242 16.9375 22.5 16.9375Z" fill="white"></path>
                </svg>