<svg width="80" height="68" viewBox="0 0 80 68" fill="none" xmlns="http://www.w3.org/2000/svg">
                  <path d="M62.9999 1.78125C53.9023 1.78125 46.5312 9.21875 46.5312 18.25C46.5312 27.3477 53.9023 34.7188 62.9999 34.7188C72.0312 34.7188 79.4687 27.3477 79.4687 18.25C79.4687 9.21875 72.0312 1.78125 62.9999 1.78125ZM62.9999 4.96875C69.7734 4.96875 75.3515 10.1484 76.1484 16.6562H70.5038C69.6406 14.5312 67.582 12.9375 65.1249 12.9375H60.8749C58.3515 12.9375 56.2929 14.5312 55.4296 16.6562H49.7851C50.582 10.1484 56.1601 4.96875 62.9999 4.96875ZM62.9999 22.9648L58.2851 18.25C58.5507 17.0547 59.6132 16.1914 60.8749 16.1914H65.1249C66.3867 16.1914 67.3828 17.0547 67.7148 18.25L62.9999 22.9648ZM49.7851 19.8438H55.4296L61.4062 25.8203V31.4648C55.2968 30.7344 50.5156 25.9531 49.7851 19.8438ZM64.5937 31.4648V25.8203L70.5038 19.8438H76.1484C75.4179 25.9531 70.6367 30.7344 64.5937 31.4648Z" fill="white"></path>
                  <path d="M31.1914 46.9375C28.3594 46.9375 27.0898 48.5 22.5 48.5C17.8125 48.5 16.543 46.9375 13.7109 46.9375C6.48438 46.9375 0.625 52.8945 0.625 60.1211V62.5625C0.625 65.1992 2.67578 67.25 5.3125 67.25H39.6875C42.2266 67.25 44.375 65.1992 44.375 62.5625V60.1211C44.375 52.8945 38.418 46.9375 31.1914 46.9375ZM39.6875 62.5625H5.3125V60.1211C5.3125 55.4336 9.02344 51.625 13.7109 51.625C15.1758 51.625 17.4219 53.1875 22.5 53.1875C27.4805 53.1875 29.7266 51.625 31.1914 51.625C35.8789 51.625 39.6875 55.4336 39.6875 60.1211V62.5625ZM22.5 45.375C30.2148 45.375 36.5625 39.125 36.5625 31.3125C36.5625 23.5977 30.2148 17.25 22.5 17.25C14.6875 17.25 8.4375 23.5977 8.4375 31.3125C8.4375 39.125 14.6875 45.375 22.5 45.375ZM22.5 21.9375C27.5781 21.9375 31.875 26.2344 31.875 31.3125C31.875 36.4883 27.5781 40.6875 22.5 40.6875C17.3242 40.6875 13.125 36.4883 13.125 31.3125C13.125 26.2344 17.3242 21.9375 22.5 21.9375Z" fill="white"></path>
                </svg>