<svg width="13" height="15" viewBox="0 0 13 15" fill="none" xmlns="http://www.w3.org/2000/svg"><path d="M11.8125 2.9375H9.54297L8.61328 1.40625C8.39453 1.05078 7.90234 0.75 7.49219 0.75H4.73047C4.32031 0.75 3.82812 1.05078 3.60938 1.40625L2.67969 2.9375H0.4375C0.191406 2.9375 0 3.15625 0 3.375V3.8125C0 4.05859 0.191406 4.25 0.4375 4.25H0.875L1.44922 13.5195C1.47656 14.2031 2.07812 14.75 2.76172 14.75H9.46094C10.1445 14.75 10.7461 14.2031 10.7734 13.5195L11.375 4.25H11.8125C12.0312 4.25 12.25 4.05859 12.25 3.8125V3.375C12.25 3.15625 12.0312 2.9375 11.8125 2.9375ZM4.73047 2.0625H7.49219L8.01172 2.9375H4.21094L4.73047 2.0625ZM9.46094 13.4375H2.76172L2.1875 4.25H10.0352L9.46094 13.4375Z" fill="#DE4E4E"></path></svg>