<svg  height="18" viewBox="0 0 25 17" fill="none" xmlns="http://www.w3.org/2000/svg"><path d="M24.3633 7.89062L19.8516 1.40234C19.5078 0.929688 18.7344 0.5 18.1328 0.5H6.57422C5.97266 0.5 5.19922 0.929688 4.85547 1.40234L0.34375 7.89062C0.128906 8.19141 0 8.70703 0 9.09375V14.9375C0 16.0977 0.902344 17 2.0625 17H22.6875C23.8047 17 24.75 16.0977 24.75 14.9375V9.09375C24.75 8.66406 24.6211 8.23438 24.3633 7.89062ZM6.57422 2.5625H18.1328L21.4844 7.375H16.2422L14.8672 10.125H9.83984L8.46484 7.375H3.22266L6.57422 2.5625ZM22.6875 14.9375H2.0625V9.4375H7.21875L8.59375 12.1875H16.1562L17.5312 9.4375H22.6875V14.9375Z" fill="#DE904E"></path></svg>