<svg width="51" height="51" viewBox="0 0 51 51" fill="none" xmlns="http://www.w3.org/2000/svg"><path d="M36.4375 36.1875C38.0977 36.1875 39.5625 34.8203 39.5625 33.0625C39.5625 31.4023 38.0977 29.9375 36.4375 29.9375C34.6797 29.9375 33.3125 31.4023 33.3125 33.0625C33.3125 34.8203 34.6797 36.1875 36.4375 36.1875ZM14.5625 36.1875C16.2227 36.1875 17.6875 34.8203 17.6875 33.0625C17.6875 31.4023 16.2227 29.9375 14.5625 29.9375C12.8047 29.9375 11.4375 31.4023 11.4375 33.0625C11.4375 34.8203 12.8047 36.1875 14.5625 36.1875ZM48.1562 12.75H47.375V8.0625C47.375 3.76562 37.6094 0.25 25.5 0.25C13.293 0.25 3.625 3.76562 3.625 8.0625V12.75H2.84375C1.47656 12.75 0.5 13.8242 0.5 15.0938V22.9062C0.5 24.2734 1.47656 25.25 2.84375 25.25H3.625V40.875C3.625 42.6328 4.99219 44 6.75 44V47.125C6.75 48.8828 8.11719 50.25 9.875 50.25H11.4375C13.0977 50.25 14.5625 48.8828 14.5625 47.125V44H36.4375V47.125C36.4375 48.8828 37.8047 50.25 39.5625 50.25H41.125C42.7852 50.25 44.25 48.8828 44.25 47.125V44C45.9102 44 47.375 42.6328 47.375 40.875V25.25H48.1562C49.4258 25.25 50.5 24.2734 50.5 22.9062V15.0938C50.5 13.8242 49.4258 12.75 48.1562 12.75ZM42.6875 39.3125H8.3125V26.8125H42.6875V39.3125ZM42.6875 22.125H8.3125V15.875H42.6875V22.125ZM42.6875 11.1875H8.3125V8.64844C9.67969 7.28125 15.7344 4.9375 25.5 4.9375C35.168 4.9375 41.2227 7.28125 42.6875 8.64844V11.1875Z" fill="white"></path></svg>