<svg width="46" height="53" viewBox="0 0 46 53" fill="none" xmlns="http://www.w3.org/2000/svg"><path d="M31.7891 31.375C28.8438 31.375 27.5234 33 22.75 33C17.875 33 16.5547 31.375 13.6094 31.375C6.09375 31.375 0 37.5703 0 45.0859V47.625C0 50.3672 2.13281 52.5 4.875 52.5H40.625C43.2656 52.5 45.5 50.3672 45.5 47.625V45.0859C45.5 37.5703 39.3047 31.375 31.7891 31.375ZM40.625 47.625H4.875V45.0859C4.875 40.2109 8.73438 36.25 13.6094 36.25C15.1328 36.25 17.4688 37.875 22.75 37.875C27.9297 37.875 30.2656 36.25 31.7891 36.25C36.6641 36.25 40.625 40.2109 40.625 45.0859V47.625ZM22.75 29.75C30.7734 29.75 37.375 23.25 37.375 15.125C37.375 7.10156 30.7734 0.5 22.75 0.5C14.625 0.5 8.125 7.10156 8.125 15.125C8.125 23.25 14.625 29.75 22.75 29.75ZM22.75 5.375C28.0312 5.375 32.5 9.84375 32.5 15.125C32.5 20.5078 28.0312 24.875 22.75 24.875C17.3672 24.875 13 20.5078 13 15.125C13 9.84375 17.3672 5.375 22.75 5.375Z" fill="#D2D3D2"></path></svg>