<svg width="91" height="68" viewBox="0 0 91 68" fill="none" xmlns="http://www.w3.org/2000/svg">
                  <path d="M36.4375 53.1875C38.0977 53.1875 39.5625 51.8203 39.5625 50.0625C39.5625 48.4023 38.0977 46.9375 36.4375 46.9375C34.6797 46.9375 33.3125 48.4023 33.3125 50.0625C33.3125 51.8203 34.6797 53.1875 36.4375 53.1875ZM14.5625 53.1875C16.2227 53.1875 17.6875 51.8203 17.6875 50.0625C17.6875 48.4023 16.2227 46.9375 14.5625 46.9375C12.8047 46.9375 11.4375 48.4023 11.4375 50.0625C11.4375 51.8203 12.8047 53.1875 14.5625 53.1875ZM48.1562 29.75H47.375V25.0625C47.375 20.7656 37.6094 17.25 25.5 17.25C13.293 17.25 3.625 20.7656 3.625 25.0625V29.75H2.84375C1.47656 29.75 0.5 30.8242 0.5 32.0938V39.9062C0.5 41.2734 1.47656 42.25 2.84375 42.25H3.625V57.875C3.625 59.6328 4.99219 61 6.75 61V64.125C6.75 65.8828 8.11719 67.25 9.875 67.25H11.4375C13.0977 67.25 14.5625 65.8828 14.5625 64.125V61H36.4375V64.125C36.4375 65.8828 37.8047 67.25 39.5625 67.25H41.125C42.7852 67.25 44.25 65.8828 44.25 64.125V61C45.9102 61 47.375 59.6328 47.375 57.875V42.25H48.1562C49.4258 42.25 50.5 41.2734 50.5 39.9062V32.0938C50.5 30.8242 49.4258 29.75 48.1562 29.75ZM42.6875 56.3125H8.3125V43.8125H42.6875V56.3125ZM42.6875 39.125H8.3125V32.875H42.6875V39.125ZM42.6875 28.1875H8.3125V25.6484C9.67969 24.2812 15.7344 21.9375 25.5 21.9375C35.168 21.9375 41.2227 24.2812 42.6875 25.6484V28.1875Z" fill="white"></path>
                  <path d="M90.8008 13.5352L87.4141 3.44141C87.0156 2.17969 85.8203 1.25 84.4258 1.25H63.5078C62.1133 1.25 60.918 2.17969 60.5195 3.44141L57.1328 13.5352C57 13.8672 57 14.1992 57 14.5312V32.0625C57 33.8555 58.3945 35.25 60.1875 35.25H87.8125C89.5391 35.25 91 33.8555 91 32.0625V14.5312C91 14.1992 90.9336 13.8672 90.8008 13.5352ZM87.6133 14H75.5938V4.4375H84.4258L87.6133 14ZM63.5078 4.4375H72.4062V14H60.3203L63.5078 4.4375ZM60.1875 32.0625V17.1875H87.8125V32.0625H60.1875Z" fill="white"></path>
                </svg>