<svg width="45" height="51" viewBox="0 0 45 51" fill="none" xmlns="http://www.w3.org/2000/svg">
                  <path d="M31.1914 29.9375C28.3594 29.9375 27.0898 31.5 22.5 31.5C17.8125 31.5 16.543 29.9375 13.7109 29.9375C6.48438 29.9375 0.625 35.8945 0.625 43.1211V45.5625C0.625 48.1992 2.67578 50.25 5.3125 50.25H39.6875C42.2266 50.25 44.375 48.1992 44.375 45.5625V43.1211C44.375 35.8945 38.418 29.9375 31.1914 29.9375ZM39.6875 45.5625H5.3125V43.1211C5.3125 38.4336 9.02344 34.625 13.7109 34.625C15.1758 34.625 17.4219 36.1875 22.5 36.1875C27.4805 36.1875 29.7266 34.625 31.1914 34.625C35.8789 34.625 39.6875 38.4336 39.6875 43.1211V45.5625ZM22.5 28.375C30.2148 28.375 36.5625 22.125 36.5625 14.3125C36.5625 6.59766 30.2148 0.25 22.5 0.25C14.6875 0.25 8.4375 6.59766 8.4375 14.3125C8.4375 22.125 14.6875 28.375 22.5 28.375ZM22.5 4.9375C27.5781 4.9375 31.875 9.23438 31.875 14.3125C31.875 19.4883 27.5781 23.6875 22.5 23.6875C17.3242 23.6875 13.125 19.4883 13.125 14.3125C13.125 9.23438 17.3242 4.9375 22.5 4.9375Z" fill="white"></path>
                </svg>