<svg  height="18" viewBox="0 0 22 23" fill="none" xmlns="http://www.w3.org/2000/svg"><path d="M15.8125 16.5625C16.543 16.5625 17.1875 15.9609 17.1875 15.1875C17.1875 14.457 16.543 13.8125 15.8125 13.8125C15.0391 13.8125 14.4375 14.457 14.4375 15.1875C14.4375 15.9609 15.0391 16.5625 15.8125 16.5625ZM6.1875 16.5625C6.91797 16.5625 7.5625 15.9609 7.5625 15.1875C7.5625 14.457 6.91797 13.8125 6.1875 13.8125C5.41406 13.8125 4.8125 14.457 4.8125 15.1875C4.8125 15.9609 5.41406 16.5625 6.1875 16.5625ZM20.9688 6.25H20.625V4.1875C20.625 2.29688 16.3281 0.75 11 0.75C5.62891 0.75 1.375 2.29688 1.375 4.1875V6.25H1.03125C0.429688 6.25 0 6.72266 0 7.28125V10.7188C0 11.3203 0.429688 11.75 1.03125 11.75H1.375V18.625C1.375 19.3984 1.97656 20 2.75 20V21.375C2.75 22.1484 3.35156 22.75 4.125 22.75H4.8125C5.54297 22.75 6.1875 22.1484 6.1875 21.375V20H15.8125V21.375C15.8125 22.1484 16.4141 22.75 17.1875 22.75H17.875C18.6055 22.75 19.25 22.1484 19.25 21.375V20C19.9805 20 20.625 19.3984 20.625 18.625V11.75H20.9688C21.5273 11.75 22 11.3203 22 10.7188V7.28125C22 6.72266 21.5273 6.25 20.9688 6.25ZM18.5625 17.9375H3.4375V12.4375H18.5625V17.9375ZM18.5625 10.375H3.4375V7.625H18.5625V10.375ZM18.5625 5.5625H3.4375V4.44531C4.03906 3.84375 6.70312 2.8125 11 2.8125C15.2539 2.8125 17.918 3.84375 18.5625 4.44531V5.5625Z" fill="#DE904E"></path></svg>