<svg width="22" height="19" viewBox="0 0 22 19" fill="none" xmlns="http://www.w3.org/2000/svg">
<path d="M21.4844 4.07812C21.7422 4.07812 22 3.86328 22 3.5625V2.1875C22 1.92969 21.7422 1.67188 21.4844 1.67188H6.01562C5.71484 1.67188 5.5 1.92969 5.5 2.1875V3.5625C5.5 3.86328 5.71484 4.07812 6.01562 4.07812H21.4844ZM22 10.4375V9.0625C22 8.80469 21.7422 8.54688 21.4844 8.54688H6.01562C5.71484 8.54688 5.5 8.80469 5.5 9.0625V10.4375C5.5 10.7383 5.71484 10.9531 6.01562 10.9531H21.4844C21.7422 10.9531 22 10.7383 22 10.4375ZM22 17.3125V15.9375C22 15.6797 21.7422 15.4219 21.4844 15.4219H6.01562C5.71484 15.4219 5.5 15.6797 5.5 15.9375V17.3125C5.5 17.6133 5.71484 17.8281 6.01562 17.8281H21.4844C21.7422 17.8281 22 17.6133 22 17.3125ZM3.95312 4.25V1.5C3.95312 1.24219 3.69531 0.984375 3.4375 0.984375H0.6875C0.386719 0.984375 0.171875 1.24219 0.171875 1.5V4.25C0.171875 4.55078 0.386719 4.76562 0.6875 4.76562H3.4375C3.69531 4.76562 3.95312 4.55078 3.95312 4.25ZM3.95312 11.125V8.375C3.95312 8.11719 3.69531 7.85938 3.4375 7.85938H0.6875C0.386719 7.85938 0.171875 8.11719 0.171875 8.375V11.125C0.171875 11.4258 0.386719 11.6406 0.6875 11.6406H3.4375C3.69531 11.6406 3.95312 11.4258 3.95312 11.125ZM3.95312 18V15.25C3.95312 14.9922 3.69531 14.7344 3.4375 14.7344H0.6875C0.386719 14.7344 0.171875 14.9922 0.171875 15.25V18C0.171875 18.3008 0.386719 18.5156 0.6875 18.5156H3.4375C3.69531 18.5156 3.95312 18.3008 3.95312 18Z" fill="#DE904E"/>
</svg>
