<svg width="466" height="87" viewBox="0 0 466 87" fill="none" xmlns="http://www.w3.org/2000/svg">
<path d="M26.4578 52.3901C21.1441 57.1986 8.19197 69.0521 6.64214 70.6736C4.76021 72.6305 6.97425 76.8799 8.85618 78.8927C10.7381 80.9056 15.2215 83.198 17.1588 81.297C18.764 79.6755 30.6091 66.4242 35.314 61.1684C31.8822 58.7083 28.8932 55.7449 26.4578 52.3901Z" fill="#231F20"/>
<path d="M74.3363 12.9158C68.4138 6.93312 60.4986 3.63428 52.0852 3.63428C34.7604 3.63428 20.6459 17.892 20.6459 35.4485C20.6459 43.9473 23.9116 51.9428 29.8341 57.9254C35.7567 63.9081 43.6719 67.2069 52.0852 67.2069C69.4101 67.2069 83.5799 52.9492 83.5799 35.3926C83.5799 26.8939 80.3142 18.8984 74.3363 12.9158ZM46.052 59.5469C45.6645 59.7705 45.2217 59.9383 44.7789 59.9383C44.5022 59.9383 44.17 59.8824 43.8933 59.7705C40.6276 58.3727 36.3102 55.9126 34.0408 53.6761C31.7161 51.3277 29.8341 48.5321 28.5611 45.4569V45.401C28.1183 44.3946 28.229 43.2763 28.8378 42.3258C29.4467 41.4312 30.443 40.8721 31.55 40.8721H33.7641C39.4652 40.8721 46.1627 45.3451 46.6608 51.2718L47.1036 57.5899C47.1036 58.3727 46.7162 59.0996 46.052 59.5469ZM52.0852 42.9408C48.4321 42.9408 45.4431 39.9216 45.4431 36.2313C45.4431 32.5411 48.4321 29.5218 52.0852 29.5218C55.7384 29.5218 58.7274 32.5411 58.7274 36.2313C58.7274 39.9216 55.7384 42.9408 52.0852 42.9408ZM75.7201 45.1214L75.4987 45.6246C74.2256 48.588 72.399 51.2718 70.1297 53.5642C67.8603 55.8566 63.5429 58.2609 60.2772 59.6587C60.0004 59.7705 59.7237 59.8264 59.3916 59.8264C58.9488 59.8264 58.506 59.7146 58.1738 59.4351C57.5096 59.0437 57.1222 58.3168 57.1222 57.534V57.4222L57.565 51.16C58.0078 45.1773 64.7053 40.7602 70.4618 40.7602H72.6758C73.7828 40.7602 74.7791 41.3194 75.388 42.214C75.8862 43.1645 75.9969 44.1709 75.7201 45.1214ZM75.8308 31.1433C75.3326 31.6465 74.6684 31.8701 73.9489 31.8701C73.6168 31.8701 73.2847 31.8142 72.9526 31.7024L70.2957 30.696C68.5798 30.025 66.8086 29.1863 65.0927 28.4036C60.8307 26.4466 56.4026 24.3778 52.0852 24.3778C47.7679 24.3778 43.3398 26.4466 39.0778 28.4036C37.3619 29.1863 35.5906 30.025 33.8748 30.696L31.2179 31.7024C30.8858 31.8142 30.5537 31.8701 30.2216 31.8701C29.5574 31.8701 28.8932 31.5906 28.3397 31.1433C27.5647 30.4164 27.2326 29.2982 27.5647 28.2917C27.8415 27.2853 28.1736 26.3348 28.6164 25.3843C29.8895 22.3091 31.7161 19.5694 34.0962 17.1651C36.4209 14.8168 39.1885 12.9158 42.2328 11.6298C45.3878 10.2879 48.7088 9.61693 52.1406 9.61693C55.5723 9.61693 58.9488 10.2879 62.0484 11.6298C65.0927 12.9158 67.8049 14.7609 70.185 17.1651C72.5098 19.5135 74.3917 22.3091 75.6648 25.3843C76.0522 26.3348 76.3843 27.3412 76.7164 28.2917C76.9378 29.2982 76.6057 30.4164 75.8308 31.1433Z" fill="#231F20"/>
<path d="M123.488 31.1991H112.639L107.99 57.9253H99.5211L104.171 31.1991H93.3218L94.7056 23.5391H124.872L123.488 31.1991Z" fill="#231F20"/>
<path d="M145.407 33.4358L141.145 57.9815H133.008L133.285 56.6396C131.127 57.8696 128.802 58.4847 126.311 58.4847C123.322 58.4847 120.942 57.4782 119.06 55.5213C117.233 53.5644 116.292 50.9924 116.292 47.7495C116.292 43.6119 117.787 40.1453 120.721 37.2938C123.71 34.3863 127.086 32.9326 130.85 32.9326C133.341 32.9326 135.444 33.5477 137.16 34.7777L137.381 33.4917H145.407V33.4358ZM129.079 51.7192C131.071 51.7192 132.842 50.9924 134.503 49.4827L135.831 41.7668C134.724 40.2572 133.175 39.4744 131.237 39.4744C129.355 39.4744 127.695 40.2013 126.366 41.5991C124.983 42.9969 124.318 44.6184 124.318 46.5753C124.318 48.0849 124.761 49.315 125.647 50.2655C126.532 51.2719 127.695 51.7192 129.079 51.7192Z" fill="#231F20"/>
<path d="M144.687 49.4828L151.938 49.5387C151.883 50.5451 152.215 51.3279 152.935 51.8311C153.654 52.3343 154.651 52.6139 155.979 52.6139C158.525 52.6139 159.798 51.9988 159.798 50.7128C159.798 49.9301 159.079 49.4268 157.695 49.2032L152.99 48.3645C151.108 48.029 149.669 47.3581 148.562 46.2957C147.51 45.2334 146.957 43.8915 146.957 42.27C146.957 39.3626 148.119 37.0702 150.389 35.3928C152.769 33.6595 155.758 32.8208 159.355 32.8208C162.4 32.8208 164.891 33.4918 166.828 34.8337C168.821 36.2315 169.595 38.3561 169.263 41.3195H162.012C162.068 40.4249 161.791 39.754 161.182 39.2507C160.573 38.8034 159.632 38.5798 158.47 38.5798C157.418 38.5798 156.533 38.7475 155.924 39.1389C155.315 39.5303 154.983 39.9776 154.983 40.5367C154.983 41.4313 155.702 41.9905 157.197 42.27L161.625 43.0528C165.887 43.7797 168.046 45.9043 168.046 49.315C168.046 52.3343 166.828 54.6826 164.337 56.36C161.846 57.9815 158.802 58.7642 155.093 58.7642C151.662 58.7642 149.005 57.9815 147.178 56.4159C145.296 54.8504 144.466 52.5579 144.687 49.4828Z" fill="#231F20"/>
<path d="M181.33 33.4356L177.068 57.9812H168.931L173.249 33.4356H181.33ZM178.618 29.5776C177.289 29.5776 176.182 29.1303 175.241 28.2357C174.3 27.3411 173.858 26.2788 173.858 24.9369C173.858 23.595 174.3 22.5326 175.241 21.638C176.182 20.7434 177.289 20.2961 178.618 20.2961C179.946 20.2961 181.053 20.7434 181.994 21.638C182.935 22.5326 183.378 23.6509 183.378 24.9369C183.378 26.2788 182.935 27.3411 181.994 28.2357C181.053 29.1303 179.946 29.5776 178.618 29.5776Z" fill="#231F20"/>
<path d="M215.315 32.6531C218.249 32.6531 220.463 33.6595 222.013 35.7283C223.563 37.7411 224.005 40.4249 223.397 43.9474L221.016 57.9815H212.88L215.094 45.2893C215.703 41.8227 214.54 40.1454 211.662 40.1454C210.278 40.1454 208.95 40.8163 207.566 42.2141C207.566 42.6614 207.511 43.2765 207.345 44.0033L204.909 58.0374H196.773L198.987 45.3452C199.596 41.8787 198.433 40.2013 195.555 40.2013C194.227 40.2013 192.898 40.9281 191.625 42.326L188.858 58.0374H180.721L184.983 33.4918H193.12L192.843 34.8896C194.725 33.4359 196.828 32.709 199.264 32.709C202.363 32.709 204.633 33.8272 206.127 36.0078C209.061 33.7713 212.105 32.6531 215.315 32.6531Z" fill="#231F20"/>
<path d="M254.282 33.4358L250.02 57.9815H241.884L242.161 56.6396C240.002 57.8696 237.677 58.4847 235.186 58.4847C232.197 58.4847 229.817 57.4782 227.935 55.5213C226.109 53.5644 225.168 50.9924 225.168 47.7495C225.168 43.6119 226.662 40.1453 229.596 37.2938C232.585 34.3863 235.961 32.9326 239.725 32.9326C242.216 32.9326 244.319 33.5477 246.035 34.7777L246.257 33.4917H254.282V33.4358ZM237.954 51.7192C239.947 51.7192 241.718 50.9924 243.378 49.4827L244.707 41.7668C243.6 40.2572 242.05 39.4744 240.113 39.4744C238.231 39.4744 236.57 40.2013 235.242 41.5991C233.858 42.9969 233.194 44.6184 233.194 46.5753C233.194 48.0849 233.637 49.315 234.522 50.2655C235.408 51.2719 236.57 51.7192 237.954 51.7192Z" fill="#231F20"/>
<path d="M269.283 39.8096C267.622 39.8096 266.183 40.3688 264.965 41.4311C263.747 42.4934 263.028 43.9472 262.696 45.6804C262.419 47.5256 262.64 48.9234 263.471 49.9857C264.246 51.0481 265.519 51.5513 267.235 51.5513C268.452 51.5513 269.559 51.2158 270.556 50.5448C271.552 49.8739 272.216 48.9793 272.659 47.861H280.297C279.412 51.0481 277.696 53.62 275.039 55.577C272.382 57.5339 269.393 58.4844 265.961 58.4844C262.032 58.4844 259.043 57.3103 256.995 54.9619C254.947 52.6136 254.282 49.5384 254.947 45.6804C255.611 41.8784 257.382 38.8591 260.316 36.5108C263.249 34.1065 266.626 32.8765 270.5 32.8765C273.877 32.8765 276.534 33.8829 278.526 35.8398C280.519 37.8527 281.349 40.3688 281.128 43.4999H273.434C273.379 42.3816 272.991 41.487 272.271 40.8161C271.497 40.1451 270.5 39.8096 269.283 39.8096Z" fill="#231F20"/>
<path d="M292.807 33.4356L288.545 57.9812H280.408L284.726 33.4356H292.807ZM290.095 29.5776C288.766 29.5776 287.659 29.1303 286.718 28.2357C285.777 27.3411 285.334 26.2788 285.334 24.9369C285.334 23.595 285.777 22.5326 286.718 21.638C287.659 20.7434 288.766 20.2961 290.095 20.2961C291.423 20.2961 292.53 20.7434 293.471 21.638C294.412 22.5326 294.855 23.6509 294.855 24.9369C294.855 26.2788 294.412 27.3411 293.471 28.2357C292.53 29.1303 291.423 29.5776 290.095 29.5776Z" fill="#231F20"/>
<path d="M306.7 22.0295L300.39 57.9254H292.198L298.508 22.0295H306.7Z" fill="#231F20"/>
<path d="M333.822 33.4358L329.56 57.9815H321.423L321.7 56.6396C319.541 57.8696 317.217 58.4847 314.726 58.4847C311.737 58.4847 309.357 57.4782 307.475 55.5213C305.648 53.5644 304.707 50.9924 304.707 47.7495C304.707 43.6119 306.202 40.1453 309.135 37.2938C312.124 34.3863 315.501 32.9326 319.264 32.9326C321.755 32.9326 323.859 33.5477 325.575 34.7777L325.796 33.4917H333.822V33.4358ZM317.493 51.7192C319.486 51.7192 321.257 50.9924 322.918 49.4827L324.246 41.7668C323.139 40.2572 321.589 39.4744 319.652 39.4744C317.77 39.4744 316.11 40.2013 314.781 41.5991C313.397 42.9969 312.733 44.6184 312.733 46.5753C312.733 48.0849 313.176 49.315 314.062 50.2655C314.947 51.2719 316.109 51.7192 317.493 51.7192Z" fill="#231F20"/>
<path d="M353.582 32.9885L352.254 40.8163C348.49 40.984 345.556 42.0464 343.342 43.9474L340.907 57.9815H332.77L337.032 33.4358H345.169L344.726 36.1196C347.327 34.0509 350.316 32.9885 353.582 32.9885Z" fill="#231F20"/>
<path d="M352.364 58.8759C351.147 58.8759 350.095 58.4286 349.209 57.59C348.324 56.7513 347.881 55.6889 347.881 54.4029C347.881 53.1729 348.324 52.1664 349.209 51.2718C350.095 50.4331 351.147 49.9858 352.364 49.9858C353.637 49.9858 354.745 50.4331 355.63 51.2718C356.516 52.1105 356.959 53.1729 356.959 54.4029C356.959 55.633 356.516 56.6953 355.63 57.59C354.689 58.4286 353.637 58.8759 352.364 58.8759Z" fill="#F39437"/>
<path d="M376.996 39.8096C375.335 39.8096 373.896 40.3688 372.678 41.4311C371.46 42.4934 370.741 43.9472 370.409 45.6804C370.132 47.5256 370.353 48.9234 371.184 49.9857C371.959 51.0481 373.232 51.5513 374.948 51.5513C376.165 51.5513 377.272 51.2158 378.269 50.5448C379.265 49.8739 379.929 48.9793 380.372 47.861H388.01C387.125 51.0481 385.409 53.62 382.752 55.577C380.095 57.5339 377.106 58.4844 373.675 58.4844C369.745 58.4844 366.756 57.3103 364.708 54.9619C362.66 52.6136 361.995 49.5384 362.66 45.6804C363.324 41.8784 365.095 38.8591 368.029 36.5108C370.962 34.1065 374.339 32.8765 378.213 32.8765C381.59 32.8765 384.247 33.8829 386.239 35.8398C388.232 37.8527 389.062 40.3688 388.841 43.4999H381.202C381.147 42.3816 380.759 41.487 380.04 40.8161C379.21 40.1451 378.213 39.8096 376.996 39.8096Z" fill="#F39437"/>
<path d="M405.667 32.8765C409.044 32.8765 411.701 33.8829 413.749 35.8957C415.797 37.9086 416.793 40.5365 416.793 43.6676C416.793 47.861 415.243 51.3835 412.199 54.3469C409.099 57.2544 405.446 58.7081 401.184 58.7081C397.808 58.7081 395.095 57.7017 393.047 55.6329C391.055 53.5641 390.058 50.9362 390.058 47.7492C390.058 43.5558 391.553 40.0333 394.597 37.1817C397.642 34.2743 401.35 32.8765 405.667 32.8765ZM402.457 51.6072C404.339 51.6072 405.889 50.9362 407.107 49.5943C408.38 48.1965 408.989 46.631 408.989 44.7858C408.933 43.3321 408.546 42.158 407.66 41.2634C406.83 40.3688 405.723 39.9215 404.339 39.9215C402.457 39.9215 400.852 40.5924 399.634 41.9343C398.361 43.2762 397.752 44.8418 397.752 46.6869C397.808 48.1406 398.25 49.3148 399.081 50.2094C400.022 51.1599 401.129 51.6072 402.457 51.6072Z" fill="#F39437"/>
<path d="M452.771 32.6531C455.705 32.6531 457.919 33.6595 459.469 35.7283C461.018 37.7411 461.461 40.4249 460.852 43.9474L458.472 57.9815H450.336L452.55 45.2893C453.159 41.8227 451.996 40.1454 449.118 40.1454C447.734 40.1454 446.406 40.8163 445.022 42.2141C445.022 42.6614 444.967 43.2765 444.801 44.0033L442.365 58.0374H434.229L436.443 45.3452C437.051 41.8787 435.889 40.2013 433.011 40.2013C431.682 40.2013 430.354 40.9281 429.081 42.326L426.313 58.0374H418.177L422.439 33.4918H430.575L430.299 34.8896C432.181 33.4359 434.284 32.709 436.719 32.709C439.819 32.709 442.088 33.8272 443.583 36.0078C446.461 33.7713 449.561 32.6531 452.771 32.6531Z" fill="#F39437"/>
</svg>
