<svg width="15" height="15" viewBox="0 0 15 15" fill="none" xmlns="http://www.w3.org/2000/svg">
<path d="M13.0312 0.941406L1.65625 7.50391C0.699219 8.05078 0.78125 9.44531 1.79297 9.85547L4.9375 11.1406V13.4375C4.9375 14.7227 6.55078 15.2422 7.28906 14.2305L8.49219 12.6172L11.5547 13.875C11.7188 13.957 11.8828 13.9844 12.0469 13.9844C12.2656 13.9844 12.4844 13.9297 12.7031 13.8203C13.0586 13.6016 13.2773 13.2734 13.3594 12.8633L14.9727 2.28125C15.1367 1.1875 13.9609 0.394531 13.0312 0.941406ZM6.25 13.4375V11.6875L7.23438 12.0977L6.25 13.4375ZM12.0469 12.6719L7.83594 10.9219L11.6914 5.39844C11.9648 4.96094 11.418 4.46875 11.0352 4.82422L5.23828 9.85547L2.3125 8.625L13.6875 2.0625L12.0469 12.6719Z" fill="white"/>
</svg>
