<svg width="17" height="23" viewBox="0 0 17 23" fill="none" xmlns="http://www.w3.org/2000/svg">
<path d="M8.55078 0.75C5.37109 0.75 2.96484 2.08203 1.16016 4.74609C0.34375 5.94922 0.601562 7.58203 1.76172 8.48438L3.35156 9.6875C3.78125 10.0312 4.38281 10.2461 4.94141 10.2461C4.46875 11.0625 4.21094 11.9648 4.21094 12.9961V13.5117C4.21094 14.1992 4.46875 14.8438 4.89844 15.3164C4.16797 16.1328 3.78125 17.1641 3.78125 18.2812C3.78125 20.7734 5.75781 22.75 8.25 22.75C10.6992 22.75 12.7188 20.7734 12.7188 18.2812C12.7188 17.1641 12.2891 16.1328 11.5586 15.3164C11.9453 14.9297 12.2031 14.3711 12.2461 13.8125C13.4492 13.082 16.3711 11.707 16.3711 7.88281C16.3711 3.84375 12.4609 0.75 8.55078 0.75ZM8.25 20.6875C6.91797 20.6875 5.84375 19.6133 5.84375 18.2812C5.84375 16.9922 6.91797 15.875 8.25 15.875C9.53906 15.875 10.6562 16.9922 10.6562 18.2812C10.6562 19.6133 9.53906 20.6875 8.25 20.6875ZM10.1836 13.125V13.5117C10.1836 13.8555 9.88281 14.1562 9.53906 14.1562H6.91797C6.57422 14.1562 6.27344 13.8555 6.27344 13.5117V12.9961C6.27344 10.9766 7.77734 10.1602 8.9375 9.51562C9.96875 8.95703 10.5703 8.57031 10.5703 7.83984C10.5703 6.85156 9.32422 6.20703 8.29297 6.20703C7.00391 6.20703 6.35938 6.85156 5.54297 7.92578C5.28516 8.18359 4.85547 8.26953 4.59766 8.01172L3.00781 6.85156C2.70703 6.63672 2.66406 6.20703 2.83594 5.90625C4.21094 3.92969 5.88672 2.8125 8.55078 2.8125C11.3438 2.8125 14.3086 5.00391 14.3086 7.88281C14.3086 11.6641 10.1836 11.75 10.1836 13.125Z" fill="#DE904E"/>
</svg>
