<svg width="22" height="17" viewBox="0 0 22 17" fill="none" xmlns="http://www.w3.org/2000/svg">
<path d="M4.125 0.5C1.84766 0.5 0 2.34766 0 4.625V12.875C0 15.1523 1.84766 17 4.125 17H7.73438C7.99219 17 8.25 16.7852 8.25 16.4844V15.4531C8.25 15.1953 7.99219 14.9375 7.73438 14.9375H4.125C2.96484 14.9375 2.0625 14.0352 2.0625 12.875V4.625C2.0625 3.50781 2.96484 2.5625 4.125 2.5625H7.73438C7.99219 2.5625 8.25 2.34766 8.25 2.04688V1.01562C8.25 0.757812 7.99219 0.5 7.73438 0.5H4.125ZM14.0508 1.35938L13.1914 2.21875C12.9766 2.39062 12.9766 2.73438 13.1914 2.94922L18.0469 7.63281H7.39062C7.08984 7.63281 6.875 7.89062 6.875 8.14844V9.35156C6.875 9.65234 7.08984 9.86719 7.39062 9.86719H18.0469L13.1914 14.5938C12.9766 14.8086 12.9766 15.1523 13.1914 15.3242L14.0508 16.1836C14.2227 16.3984 14.5664 16.3984 14.7812 16.1836L21.8281 9.13672C22.043 8.92188 22.043 8.62109 21.8281 8.40625L14.7812 1.35938C14.5664 1.14453 14.2227 1.14453 14.0508 1.35938Z" fill="#DE904E"/>
</svg>
