<svg width="22" height="20" viewBox="0 0 22 20" fill="none" xmlns="http://www.w3.org/2000/svg">
<path d="M22 8.97656C22 8.58984 21.8281 8.24609 21.5703 7.98828L19.6367 6.05469C19.3789 5.79688 19.0352 5.625 18.6484 5.625H16.5V2.1875C16.5 1.07031 15.5547 0.125 14.4375 0.125H7.5625C6.40234 0.125 5.5 1.07031 5.5 2.1875V5.625H3.30859C2.92188 5.625 2.57812 5.79688 2.32031 6.05469L0.386719 7.98828C0.128906 8.24609 0 8.58984 0 8.97656V11.8125V18C0 18.7734 0.601562 19.375 1.375 19.375H20.625C21.3555 19.375 22 18.7734 22 18V8.97656ZM7.5625 2.1875H14.4375V5.625H7.5625V2.1875ZM2.0625 9.23438L3.56641 7.6875H18.3906L19.9375 9.23438V11.8125H16.1562V11.125C16.1562 10.7812 15.8125 10.4375 15.4688 10.4375H14.7812C14.3945 10.4375 14.0938 10.7812 14.0938 11.125V11.8125H7.90625V11.125C7.90625 10.7812 7.5625 10.4375 7.21875 10.4375H6.53125C6.14453 10.4375 5.84375 10.7812 5.84375 11.125V11.8125H2.0625V9.23438ZM19.9375 17.3125H2.0625V13.875H5.84375V14.5625C5.84375 14.9492 6.14453 15.25 6.53125 15.25H7.21875C7.5625 15.25 7.90625 14.9492 7.90625 14.5625V13.875H14.0938V14.5625C14.0938 14.9492 14.3945 15.25 14.7812 15.25H15.4688C15.8125 15.25 16.1562 14.9492 16.1562 14.5625V13.875H19.9375V17.3125Z" fill="#DE904E"/>
</svg>
